<svg width="37" height="37" viewBox="0 0 37 37" fill="none" xmlns="http://www.w3.org/2000/svg">
<g clip-path="url(#clip0_388_829)">
<path d="M12.8893 1.21706C9.19241 2.49954 6.00423 4.93373 3.79304 8.16208C1.58185 11.3904 0.464201 15.2428 0.604255 19.1533C0.744308 23.0638 2.13468 26.8263 4.57116 29.8882C7.00763 32.9501 10.3618 35.15 14.1409 36.1647C17.2048 36.9553 20.4148 36.99 23.495 36.2659C26.2854 35.6391 28.8651 34.2984 30.9817 32.3751C33.1846 30.3122 34.7836 27.6879 35.6067 24.7843C36.5014 21.6268 36.6606 18.3062 36.0721 15.0776H18.8671V22.2146H28.8311C28.6319 23.3529 28.2052 24.4393 27.5764 25.4088C26.9476 26.3783 26.1297 27.211 25.1716 27.8571C23.9548 28.6619 22.5833 29.2034 21.1449 29.4469C19.7023 29.7151 18.2227 29.7151 16.7801 29.4469C15.318 29.1446 13.9348 28.5411 12.7187 27.675C10.7651 26.292 9.2982 24.3274 8.52734 22.0614C7.74344 19.7529 7.74344 17.2502 8.52734 14.9417C9.07605 13.3236 9.98315 11.8503 11.1809 10.6318C12.5516 9.2118 14.287 8.19676 16.1966 7.69806C18.1062 7.19937 20.1163 7.2363 22.0063 7.8048C23.4828 8.25802 24.8329 9.0499 25.9491 10.1173C27.0726 8.99959 28.1942 7.87899 29.3138 6.7555C29.8919 6.15136 30.5221 5.57612 31.0916 4.95753C29.3877 3.37195 27.3877 2.13818 25.2062 1.32691C21.2337 -0.115545 16.887 -0.15431 12.8893 1.21706Z" fill="white"/>
<path d="M12.8893 1.217C16.8867 -0.155302 21.2334 -0.117558 25.2063 1.32396C27.3882 2.14074 29.3872 3.38046 31.0887 4.97192C30.5106 5.59052 29.9007 6.16864 29.311 6.76989C28.1894 7.88953 27.0688 9.00531 25.9492 10.1172C24.833 9.04984 23.4828 8.25796 22.0064 7.80474C20.117 7.23425 18.107 7.19518 16.1968 7.69184C14.2867 8.18849 12.5503 9.20166 11.1781 10.6202C9.98031 11.8387 9.07321 13.312 8.52449 14.9301L2.53223 10.2907C4.67709 6.0373 8.3908 2.78379 12.8893 1.217Z" fill="#E33629"/>
<path d="M0.942292 14.8866C1.26437 13.2904 1.79908 11.7446 2.53214 10.2905L8.5244 14.9415C7.74051 17.25 7.74051 19.7527 8.5244 22.0612C6.52794 23.6028 4.53052 25.1522 2.53214 26.7093C0.697024 23.0564 0.137347 18.8945 0.942292 14.8866Z" fill="#F8BD00"/>
<path d="M18.8671 15.0747H36.0721C36.6607 18.3033 36.5014 21.6239 35.6067 24.7814C34.7836 27.685 33.1846 30.3093 30.9817 32.3722C29.0479 30.8633 27.1054 29.366 25.1716 27.8571C26.1303 27.2104 26.9487 26.3767 27.5775 25.4062C28.2063 24.4356 28.6327 23.3481 28.8311 22.2088H18.8671C18.8642 19.8327 18.8671 17.4537 18.8671 15.0747Z" fill="#587DBD"/>
<path d="M2.5293 26.7094C4.52768 25.1677 6.5251 23.6184 8.52156 22.0613C9.29396 24.3281 10.763 26.2928 12.7187 27.6749C13.9386 28.537 15.3247 29.1356 16.7887 29.4324C18.2313 29.7006 19.711 29.7006 21.1536 29.4324C22.592 29.1889 23.9635 28.6474 25.1802 27.8425C27.1141 29.3514 29.0566 30.8488 30.9904 32.3577C28.8741 34.2821 26.2943 35.6237 23.5037 36.2514C20.4234 36.9755 17.2134 36.9408 14.1496 36.1502C11.7264 35.5032 9.46297 34.3626 7.50117 32.8C5.42472 31.1514 3.72878 29.0739 2.5293 26.7094Z" fill="#319F43"/>
</g>
<defs>
<clipPath id="clip0_388_829">
<rect width="37" height="37" fill="white"/>
</clipPath>
</defs>
</svg>
